<svg xmlns="http://www.w3.org/2000/svg" viewBox="0 0 64 64">
  <rect width="64" height="64" rx="14" fill="#EE5C0B"/>
  <path d="M44 12 L46.5 18 L52 15.5 L49 21 L55 23 L48.5 25 L51 31 L45 27.5 L43 33.5 L42 27 L36 28 L40 23 L34 20 L41 19 Z" fill="#FFFFFF"/>
  <path d="M33 22 Q37 15 44 13" fill="none" stroke="#1B1712" stroke-width="4.5" stroke-linecap="round"/>
  <g transform="rotate(22 33 24)">
    <rect x="26" y="19" width="15" height="9" rx="2.5" fill="#3B414A" stroke="#1B1712" stroke-width="2.5"/>
  </g>
  <circle cx="29" cy="40" r="19" fill="#697079" stroke="#1B1712" stroke-width="4"/>
  <circle cx="36" cy="47" r="13" fill="#3B414A" opacity="0.5"/>
  <ellipse cx="22" cy="33" rx="6" ry="4.5" fill="#FFFFFF" opacity="0.9" transform="rotate(-28 22 33)"/>
  <ellipse cx="24" cy="41" rx="2.6" ry="3.4" fill="#1B1712"/>
  <ellipse cx="35" cy="41" rx="2.6" ry="3.4" fill="#1B1712"/>
  <path d="M25 48 Q29 51.5 34 48" stroke="#1B1712" stroke-width="2.6" fill="none" stroke-linecap="round"/>
</svg>
